# Blender v2.81 (sub 16) OBJ File: 'ship2.blend'
# www.blender.org
mtllib ship2.mtl
o Cube
v -0.412878 0.585311 -0.996641
v -1.000000 -1.013897 -1.000000
v -0.505177 0.421521 0.996641
v -1.000000 -0.775726 1.000000
v -2.325402 -0.587982 -1.000000
v -2.325402 -1.062081 1.000000
v -1.179382 -0.406043 -1.000000
v -1.616252 -0.239956 1.000000
v -0.350789 0.216901 -3.025421
v -0.606188 -0.699384 -3.025421
v -1.250742 -0.227037 -3.025421
v -1.250742 -0.586375 -3.025421
v -0.834766 0.144457 2.327547
v -0.671655 -0.382374 2.327547
v -2.123524 -0.241665 2.327547
v -1.659045 -0.555589 2.327547
v -4.091860 0.186243 2.022186
v -3.889982 0.030514 2.543944
v -4.091860 -0.138191 1.236139
v -4.091860 0.050610 2.022186
v -4.091860 -0.083363 1.236139
v -3.889982 -0.021276 2.543944
v -0.304443 -0.294101 -4.478310
v -0.304443 -0.624904 -4.478310
v -0.559211 -0.510666 -4.478310
v -0.559211 -0.685961 -4.478310
v 0.412878 0.585311 -0.996641
v 1.000000 -1.013897 -1.000000
v 0.505177 0.421521 0.996641
v 1.000000 -0.775726 1.000000
v 0.000000 -0.775726 1.000000
v -0.000000 0.585311 -0.996641
v 0.000000 0.421521 0.996641
v -0.000000 -1.013897 -1.000000
v 2.325402 -0.587982 -1.000000
v 2.325402 -1.062081 1.000000
v 1.179382 -0.406043 -1.000000
v 1.616252 -0.239956 1.000000
v 0.350789 0.216901 -3.025421
v 0.606188 -0.699384 -3.025421
v -0.000000 -0.699384 -3.025421
v -0.000000 0.216901 -3.025421
v 1.250742 -0.227037 -3.025421
v 1.250742 -0.586375 -3.025421
v 0.834766 0.144457 2.327547
v 0.671655 -0.382374 2.327547
v 0.000000 0.129684 2.327547
v 0.000000 -0.415125 2.327547
v 2.123524 -0.241665 2.327547
v 1.659046 -0.555589 2.327547
v 4.091860 0.186243 2.022186
v 3.889982 0.030514 2.543943
v 4.091860 -0.138191 1.236139
v 4.091860 0.050610 2.022186
v 4.091860 -0.083363 1.236139
v 3.889982 -0.021276 2.543943
v 0.304442 -0.294101 -4.478310
v 0.304442 -0.624904 -4.478310
v -0.000000 -0.624904 -4.478310
v -0.000000 -0.294101 -4.478310
v 0.559210 -0.510666 -4.478310
v 0.559210 -0.685961 -4.478310
vt 0.449088 0.792215
vt 0.379010 0.949721
vt 0.348183 0.793026
vt 0.537026 0.797178
vt 0.612224 0.557710
vt 0.655149 0.792365
vt 0.348183 0.558517
vt 0.525952 0.566724
vt 0.486007 0.796714
vt 0.484254 0.566345
vt 0.217248 0.792519
vt 0.050980 0.979559
vt 0.029297 0.919285
vt 0.572980 0.949720
vt 0.210271 0.561946
vt 0.316332 0.324926
vt 0.382477 0.323779
vt 0.385391 0.154413
vt 0.410501 0.154544
vt 0.443645 0.323287
vt 0.441220 0.154297
vt 0.620750 0.320429
vt 0.729589 0.557050
vt 0.522681 0.327160
vt 0.617538 0.323810
vt 0.449088 0.557706
vt 0.081849 0.023387
vt 0.032881 0.103932
vt 0.026755 0.025832
vt 0.086841 0.120570
vt 0.019503 0.219738
vt 0.281074 0.949565
vt 0.488808 0.948814
vt 0.706586 0.947270
vt 0.901504 0.917576
vt 0.882583 0.976630
vt 0.748162 0.386014
vt 0.760787 0.203191
vt 0.771700 0.202063
vt 0.761392 0.504000
vt 0.721167 0.388804
vt 0.903800 0.823586
vt 0.053195 0.272441
vt 0.081604 0.478502
vt 0.030229 0.826592
vt 0.889240 0.363281
vt 0.814394 0.426797
vt 0.821228 0.354731
vt 0.850434 0.297377
vt 0.965203 0.414394
vt 0.940661 0.178389
vt 0.965203 0.176474
vt 0.487254 0.326838
vt 0.522358 0.153272
vt 0.550024 0.151468
vt 0.379010 0.949721
vt 0.348183 0.793026
vt 0.537026 0.797178
vt 0.612224 0.557710
vt 0.525952 0.566724
vt 0.348183 0.558517
vt 0.217248 0.792519
vt 0.050980 0.979559
vt 0.281074 0.949565
vt 0.572980 0.949720
vt 0.655149 0.792365
vt 0.316332 0.324926
vt 0.210271 0.561946
vt 0.382477 0.323779
vt 0.385391 0.154413
vt 0.410501 0.154544
vt 0.620750 0.320429
vt 0.729589 0.557050
vt 0.522681 0.327160
vt 0.032881 0.103932
vt 0.019503 0.219738
vt 0.086841 0.120570
vt 0.706586 0.947270
vt 0.901504 0.917576
vt 0.748162 0.386014
vt 0.760787 0.203191
vt 0.721167 0.388804
vt 0.761392 0.504000
vt 0.903800 0.823586
vt 0.081604 0.478502
vt 0.053195 0.272441
vt 0.030229 0.826592
vt 0.889240 0.363281
vt 0.821228 0.354731
vt 0.850434 0.297377
vt 0.965203 0.414394
vt 0.940661 0.178389
vt 0.914895 0.418320
vt 0.522358 0.153272
vt 0.550024 0.151468
vt 0.617538 0.323810
vt 0.447104 0.948995
vt 0.771700 0.502935
vt 0.904290 0.823070
vt 0.086841 0.478270
vt 0.882406 0.435347
vt 0.814394 0.292847
vt 0.914895 0.418320
vt 0.491612 0.152992
vt 0.029297 0.919285
vt 0.882583 0.976630
vt 0.771700 0.202063
vt 0.771700 0.502935
vt 0.904290 0.823070
vt 0.086841 0.478270
vt 0.814394 0.292847
vt 0.965203 0.176474
vn 0.0000 -0.9588 0.2841
vn -0.5036 0.8450 -0.1802
vn 0.0000 -0.9930 0.1182
vn 0.0000 0.9966 0.0819
vn -0.5002 -0.8627 0.0747
vn -0.5107 0.8582 0.0522
vn -0.2984 -0.9287 -0.2201
vn -0.1698 -0.9683 -0.1834
vn 0.2331 -0.9725 -0.0014
vn 0.0000 -0.9987 -0.0512
vn -0.1563 0.9843 -0.0821
vn 0.0000 0.9839 -0.1787
vn -0.4404 0.8928 0.0944
vn 0.0000 -0.9882 -0.1534
vn 0.0000 0.0000 1.0000
vn 0.2040 -0.9444 0.2579
vn 0.0000 0.9768 0.2142
vn 0.1747 0.9600 0.2189
vn -1.0000 0.0000 0.0000
vn -0.9326 0.0000 0.3609
vn 0.0289 0.9455 -0.3243
vn -0.1481 0.9331 -0.3276
vn 0.1451 0.2147 0.9658
vn -0.4750 -0.8563 -0.2030
vn 0.0000 0.0000 -1.0000
vn -0.9029 0.0000 -0.4298
vn 0.0000 0.9434 -0.3318
vn -0.4128 0.8368 -0.3598
vn 0.7911 0.6116 0.0136
vn 0.1716 -0.8887 0.4252
vn 0.5107 0.8582 0.0522
vn -0.2098 -0.9709 0.1156
vn 0.3020 -0.9396 -0.1610
vn 0.1727 -0.9849 -0.0147
vn 0.1563 0.9843 -0.0821
vn 0.7837 0.6064 -0.1341
vn -0.2040 -0.9444 0.2579
vn -0.2003 0.9767 0.0778
vn 1.0000 0.0000 0.0000
vn 0.9326 0.0000 0.3609
vn -0.0563 0.9959 -0.0704
vn 0.1481 0.9331 -0.3276
vn -0.1451 0.2147 0.9658
vn 0.4750 -0.8563 -0.2030
vn 0.9029 0.0000 -0.4298
vn 0.4128 0.8368 -0.3598
vn -0.0470 -0.9640 0.2618
vn -0.7911 0.6116 0.0136
vn -0.1716 -0.8887 0.4252
vn -0.2853 0.9523 -0.1078
vn 0.2098 -0.9709 0.1156
vn -0.3020 -0.9396 -0.1610
vn -0.1727 -0.9849 -0.0147
vn -0.9994 0.0000 0.0352
vn -0.7837 0.6064 -0.1341
vn 0.1677 -0.9558 0.2417
vn 0.0173 0.9780 0.2079
vn 0.2003 0.9767 0.0778
vn 0.0563 0.9959 -0.0704
vn -0.7847 0.0000 -0.6199
vn 0.1216 0.0000 0.9926
vn -0.4308 -0.8775 0.2108
vn -0.6223 0.7320 -0.2773
vn 0.0470 -0.9640 0.2618
vn 0.5036 0.8450 -0.1802
vn 0.5002 -0.8627 0.0747
vn 0.2853 0.9523 -0.1078
vn 0.2984 -0.9287 -0.2201
vn 0.1698 -0.9683 -0.1834
vn -0.2331 -0.9725 -0.0014
vn 0.9994 0.0000 0.0352
vn 0.4404 0.8928 0.0944
vn -0.1677 -0.9558 0.2417
vn -0.0173 0.9780 0.2079
vn -0.1747 0.9600 0.2189
vn -0.0289 0.9455 -0.3243
vn 0.7847 0.0000 -0.6199
vn -0.1216 0.0000 0.9926
vn 0.4308 -0.8775 0.2108
vn 0.6223 0.7320 -0.2773
usemtl Material
s off
f 31/1/1 14/2/1 4/3/1
f 3/4/2 7/5/2 8/6/2
f 2/7/3 31/1/3 4/3/3
f 1/8/4 33/9/4 32/10/4
f 6/11/5 22/12/5 20/13/5
f 8/6/6 13/14/6 3/4/6
f 2/7/7 6/11/7 5/15/7
f 2/7/8 12/16/8 10/17/8
f 10/17/9 26/18/9 24/19/9
f 41/20/10 24/19/10 59/21/10
f 7/5/11 12/22/11 5/23/11
f 32/10/12 9/24/12 1/8/12
f 7/5/13 9/24/13 11/25/13
f 34/26/14 10/17/14 41/20/14
f 47/27/15 14/28/15 48/29/15
f 13/30/15 16/31/15 14/28/15
f 4/3/16 16/32/16 6/11/16
f 3/4/17 47/33/17 33/9/17
f 15/34/18 17/35/18 18/36/18
f 20/37/19 21/38/19 19/39/19
f 20/37/20 18/40/20 17/41/20
f 8/6/21 21/42/21 17/35/21
f 5/23/22 21/42/22 7/5/22
f 15/43/23 22/44/23 16/31/23
f 6/11/24 19/45/24 5/15/24
f 23/46/25 59/47/25 24/48/25
f 24/48/25 25/49/25 23/46/25
f 12/50/26 25/51/26 26/52/26
f 42/53/27 23/54/27 9/24/27
f 9/24/28 25/55/28 11/25/28
f 46/56/1 31/1/1 30/57/1
f 29/58/29 37/59/29 27/60/29
f 31/1/3 28/61/3 30/57/3
f 27/60/4 33/9/4 29/58/4
f 36/62/30 56/63/30 50/64/30
f 45/65/31 38/66/31 29/58/31
f 28/61/32 36/62/32 30/57/32
f 28/61/33 44/67/33 35/68/33
f 40/69/34 62/70/34 44/67/34
f 41/20/10 58/71/10 40/69/10
f 44/72/35 37/59/35 35/73/35
f 39/74/12 32/10/12 27/60/12
f 37/59/36 39/74/36 27/60/36
f 34/26/14 40/69/14 28/61/14
f 46/75/15 47/27/15 48/29/15
f 50/76/15 45/77/15 46/75/15
f 50/64/37 30/57/37 36/62/37
f 47/33/17 29/58/17 33/9/17
f 49/78/38 51/79/38 38/66/38
f 54/80/39 55/81/39 51/82/39
f 52/83/40 54/80/40 51/82/40
f 38/66/41 55/84/41 37/59/41
f 55/84/42 35/73/42 37/59/42
f 56/85/43 49/86/43 50/76/43
f 53/87/44 36/62/44 35/68/44
f 59/47/25 57/88/25 58/89/25
f 61/90/25 58/89/25 57/88/25
f 44/91/45 61/92/45 43/93/45
f 57/94/27 42/53/27 39/74/27
f 61/95/46 39/74/46 43/96/46
f 31/1/47 48/97/47 14/2/47
f 3/4/48 1/8/48 7/5/48
f 2/7/3 34/26/3 31/1/3
f 1/8/4 3/4/4 33/9/4
f 6/11/49 16/32/49 22/12/49
f 8/6/50 15/34/50 13/14/50
f 2/7/51 4/3/51 6/11/51
f 2/7/52 5/15/52 12/16/52
f 10/17/53 12/16/53 26/18/53
f 41/20/10 10/17/10 24/19/10
f 7/5/54 11/25/54 12/22/54
f 32/10/12 42/53/12 9/24/12
f 7/5/55 1/8/55 9/24/55
f 34/26/14 2/7/14 10/17/14
f 47/27/15 13/30/15 14/28/15
f 13/30/15 15/43/15 16/31/15
f 4/3/56 14/2/56 16/32/56
f 3/4/57 13/14/57 47/33/57
f 15/34/58 8/6/58 17/35/58
f 20/37/19 17/41/19 21/38/19
f 20/37/20 22/98/20 18/40/20
f 8/6/59 7/5/59 21/42/59
f 5/23/60 19/99/60 21/42/60
f 15/43/61 18/100/61 22/44/61
f 6/11/62 20/13/62 19/45/62
f 23/46/25 60/101/25 59/47/25
f 24/48/25 26/102/25 25/49/25
f 12/50/26 11/103/26 25/51/26
f 42/53/27 60/104/27 23/54/27
f 9/24/63 23/54/63 25/55/63
f 46/56/64 48/97/64 31/1/64
f 29/58/65 38/66/65 37/59/65
f 31/1/3 34/26/3 28/61/3
f 27/60/4 32/10/4 33/9/4
f 36/62/66 54/105/66 56/63/66
f 45/65/67 49/78/67 38/66/67
f 28/61/68 35/68/68 36/62/68
f 28/61/69 40/69/69 44/67/69
f 40/69/70 58/71/70 62/70/70
f 41/20/10 59/21/10 58/71/10
f 44/72/71 43/96/71 37/59/71
f 39/74/12 42/53/12 32/10/12
f 37/59/72 43/96/72 39/74/72
f 34/26/14 41/20/14 40/69/14
f 46/75/15 45/77/15 47/27/15
f 50/76/15 49/86/15 45/77/15
f 50/64/73 46/56/73 30/57/73
f 47/33/74 45/65/74 29/58/74
f 49/78/75 52/106/75 51/79/75
f 54/80/39 53/107/39 55/81/39
f 52/83/40 56/108/40 54/80/40
f 38/66/76 51/79/76 55/84/76
f 55/84/77 53/109/77 35/73/77
f 56/85/78 52/110/78 49/86/78
f 53/87/79 54/105/79 36/62/79
f 59/47/25 60/101/25 57/88/25
f 61/90/25 62/111/25 58/89/25
f 44/91/45 62/112/45 61/92/45
f 57/94/27 60/104/27 42/53/27
f 61/95/80 57/94/80 39/74/80
