# Blender v2.81 (sub 16) OBJ File: 'ship3_small.blend'
# www.blender.org
mtllib ship3_small.mtl
o Cube
v 0.502805 0.664730 -1.256475
v 0.392251 0.430057 0.677154
v 2.395496 -1.056208 -2.259947
v 2.510832 -1.115717 -0.946649
v 0.429336 0.588430 -2.612061
v 3.228919 -0.407130 -2.941414
v 3.228671 -0.498164 -2.468968
v 1.916015 -0.493356 -0.695123
v 0.778359 0.051279 -1.218818
v 1.136003 -0.572694 0.411488
v 0.926751 -0.068082 0.295017
v 1.892842 -0.598386 -2.056859
v 1.516162 -0.147395 -1.523165
v 0.568990 -0.196724 1.131765
v 0.513194 -0.746524 3.875931
v 0.508850 -0.374257 -1.913228
v 0.359449 -0.993046 3.961024
v 1.645894 -0.886184 -1.002961
v -0.502805 0.664730 -1.256475
v -0.392251 0.430057 0.677154
v -2.395496 -1.056208 -2.259947
v -2.510832 -1.115717 -0.946649
v -0.429336 0.588430 -2.612061
v -3.228919 -0.407130 -2.941414
v -3.228671 -0.498164 -2.468968
v -1.916015 -0.493356 -0.695123
v -0.778359 0.051279 -1.218818
v -1.136003 -0.572694 0.411488
v -0.926751 -0.068082 0.295017
v -1.892842 -0.598386 -2.056859
v -1.516162 -0.147395 -1.523165
v -0.568990 -0.196724 1.131765
v -0.513194 -0.746524 3.875931
v -0.508850 -0.374257 -1.913228
v -0.359449 -0.993046 3.961024
v -1.645894 -0.886184 -1.002961
v 0.000000 0.437823 0.804798
v 0.000000 -1.114451 1.379190
v 0.000000 0.094022 2.684245
v 0.000000 -0.583657 -1.946118
v 0.000000 -1.169570 4.415886
v 0.000000 0.079203 -2.384797
v 0.000000 -0.764540 4.783148
v 0.000000 0.578585 -2.543654
v 0.000000 0.802054 0.164377
vt 0.785448 0.605029
vt 0.719242 0.373308
vt 0.734109 0.308633
vt 0.668913 0.416718
vt 0.716765 0.463719
vt 0.636878 0.588665
vt 0.133131 0.853008
vt 0.309009 0.720140
vt 0.156371 0.979033
vt 0.347094 0.458557
vt 0.242416 0.505143
vt 0.894097 0.606323
vt 0.871083 0.516542
vt 0.894097 0.311744
vt 0.231864 0.149745
vt 0.312764 0.205541
vt 0.252421 0.394315
vt 0.139152 0.243883
vt 0.068525 0.029469
vt 0.159856 0.069871
vt 0.406761 0.211998
vt 0.534369 0.154006
vt 0.496875 0.170729
vt 0.589804 0.088981
vt 0.435008 0.040067
vt 0.025092 0.265171
vt 0.109976 0.367558
vt 0.027285 0.757351
vt 0.983482 0.889322
vt 0.983482 0.982292
vt 0.908035 0.949347
vt 0.621218 0.498920
vt 0.255033 0.872035
vt 0.352951 0.779569
vt 0.352951 0.979630
vt 0.441717 0.640835
vt 0.537804 0.957931
vt 0.617310 0.045927
vt 0.743613 0.168551
vt 0.628493 0.309497
vt 0.788574 0.697239
vt 0.435008 0.404676
vt 0.390155 0.483809
vt 0.846137 0.186801
vt 0.621219 0.957847
vt 0.852154 0.430895
vt 0.022297 0.193913
vt 0.640770 0.043813
vt 0.777499 0.044594
vt 0.859715 0.216804
vt 0.859715 0.374516
vt 0.824663 0.285853
vt 0.867792 0.040866
vt 0.437139 0.500837
vt 0.555901 0.048179
vt 0.672100 0.986284
vt 0.638767 0.874875
vt 0.732458 0.912137
vt 0.732458 0.720100
vt 0.286371 0.785287
vt 0.896616 0.038409
vt 0.964990 0.044994
vt 0.891030 0.223328
vt 0.964989 0.413204
vt 0.785448 0.605029
vt 0.734109 0.308633
vt 0.719242 0.373308
vt 0.668913 0.416718
vt 0.636878 0.588665
vt 0.716765 0.463719
vt 0.133131 0.853008
vt 0.347094 0.458557
vt 0.242416 0.505143
vt 0.894097 0.606323
vt 0.894097 0.311744
vt 0.871083 0.516542
vt 0.231864 0.149745
vt 0.252421 0.394315
vt 0.312764 0.205541
vt 0.139152 0.243883
vt 0.068525 0.029469
vt 0.159856 0.069871
vt 0.406761 0.211998
vt 0.534369 0.154006
vt 0.496875 0.170729
vt 0.435008 0.040067
vt 0.025092 0.265171
vt 0.027285 0.757351
vt 0.109976 0.367558
vt 0.983482 0.982292
vt 0.352951 0.979630
vt 0.352951 0.779569
vt 0.441717 0.640835
vt 0.537804 0.957931
vt 0.617310 0.045927
vt 0.628493 0.309497
vt 0.743613 0.168551
vt 0.788574 0.697239
vt 0.846137 0.186801
vt 0.852154 0.430895
vt 0.022297 0.193913
vt 0.777499 0.044594
vt 0.640770 0.043813
vt 0.859715 0.216804
vt 0.824663 0.285853
vt 0.859715 0.374516
vt 0.867792 0.040866
vt 0.437139 0.500837
vt 0.732458 0.912137
vt 0.638767 0.874875
vt 0.732458 0.720100
vt 0.896616 0.038409
vt 0.891030 0.223328
vn -0.4058 0.8975 0.1727
vn 0.5210 -0.8382 -0.1612
vn 0.5371 0.7807 0.3193
vn 0.8741 0.4216 0.2414
vn 0.3663 -0.6749 0.6406
vn 0.2783 0.9593 0.0484
vn 0.6602 0.6469 0.3817
vn 0.6564 0.7513 -0.0691
vn 0.7266 0.6840 -0.0651
vn 0.9120 0.4061 -0.0574
vn 0.7614 0.5074 0.4035
vn 0.7994 -0.3239 0.5060
vn 0.9115 0.4050 -0.0722
vn 0.7269 0.6452 0.2354
vn 0.2705 -0.5313 -0.8028
vn 0.4239 -0.9056 -0.0164
vn 0.5962 -0.6876 -0.4144
vn 0.3080 -0.9373 -0.1631
vn -0.4375 -0.8983 0.0414
vn 0.5396 -0.8376 -0.0853
vn 0.5871 0.7989 0.1305
vn 0.1753 0.8558 0.4867
vn 0.0778 0.9807 0.1794
vn -0.2619 -0.9579 0.1179
vn 0.3845 -0.9116 -0.1455
vn -0.5669 0.8192 0.0869
vn 0.7378 0.6589 0.1470
vn 0.7162 0.6972 -0.0313
vn -0.6506 -0.6800 -0.3381
vn 0.4926 0.8616 0.1221
vn -0.0819 0.7320 -0.6764
vn -0.7048 -0.6249 -0.3358
vn 0.7286 0.5129 0.4539
vn 0.8300 -0.5499 -0.0933
vn 0.8000 -0.4031 0.4445
vn 0.7846 0.3443 -0.5155
vn 0.4195 -0.9076 -0.0157
vn 0.6685 0.4898 -0.5596
vn -0.2551 -0.9667 -0.0214
vn 0.7225 0.6802 0.1239
vn -0.1434 -0.3000 -0.9431
vn -0.0316 0.9980 -0.0545
vn 0.0398 0.9958 -0.0822
vn 0.4058 0.8975 0.1727
vn -0.5210 -0.8382 -0.1612
vn -0.5371 0.7807 0.3193
vn -0.8741 0.4216 0.2414
vn -0.3663 -0.6749 0.6406
vn -0.2783 0.9593 0.0484
vn -0.6602 0.6469 0.3817
vn -0.6564 0.7513 -0.0691
vn -0.7266 0.6840 -0.0651
vn -0.9120 0.4061 -0.0574
vn -0.7614 0.5074 0.4035
vn -0.7994 -0.3239 0.5060
vn -0.9115 0.4050 -0.0722
vn -0.7269 0.6452 0.2354
vn -0.2705 -0.5313 -0.8028
vn -0.4239 -0.9056 -0.0164
vn -0.5962 -0.6876 -0.4144
vn -0.3080 -0.9373 -0.1631
vn 0.4375 -0.8983 0.0414
vn -0.5396 -0.8376 -0.0853
vn -0.5871 0.7989 0.1305
vn -0.1753 0.8558 0.4867
vn -0.0778 0.9807 0.1794
vn 0.2619 -0.9579 0.1179
vn -0.3845 -0.9116 -0.1455
vn 0.5669 0.8192 0.0869
vn -0.7378 0.6589 0.1470
vn -0.7162 0.6972 -0.0313
vn 0.6506 -0.6800 -0.3381
vn -0.4926 0.8616 0.1221
vn 0.0819 0.7320 -0.6764
vn 0.7048 -0.6249 -0.3358
vn -0.7286 0.5129 0.4539
vn -0.8300 -0.5499 -0.0933
vn -0.8000 -0.4031 0.4445
vn -0.7846 0.3443 -0.5155
vn -0.4195 -0.9076 -0.0157
vn -0.6685 0.4898 -0.5596
vn 0.2551 -0.9667 -0.0214
vn -0.7225 0.6802 0.1239
vn 0.1434 -0.3000 -0.9431
vn 0.0316 0.9980 -0.0545
vn -0.0398 0.9958 -0.0822
usemtl Material
s off
f 4/1/1 7/2/1 6/3/1
f 6/4/2 7/5/2 3/6/2
f 15/7/3 39/8/3 43/9/3
f 2/10/4 39/8/4 14/11/4
f 14/12/5 10/13/5 4/14/5
f 13/15/6 9/16/6 11/17/6
f 11/17/7 14/11/7 8/18/7
f 3/19/8 12/20/8 8/18/8
f 8/18/9 12/20/9 13/15/9
f 1/21/10 11/17/10 9/16/10
f 14/11/11 11/17/11 2/10/11
f 17/22/12 15/23/12 41/24/12
f 1/21/13 9/16/13 5/25/13
f 10/26/14 14/27/14 17/28/14
f 42/29/15 16/30/15 40/31/15
f 38/32/16 17/22/16 41/24/16
f 42/33/17 5/34/17 9/35/17
f 10/36/18 38/32/18 16/37/18
f 16/38/19 18/39/19 10/40/19
f 4/41/20 3/6/20 7/5/20
f 1/21/21 45/42/21 2/10/21
f 45/42/22 37/43/22 2/10/22
f 2/10/23 37/43/23 39/8/23
f 4/44/24 10/40/24 18/39/24
f 16/37/25 38/32/25 40/45/25
f 4/1/26 6/3/26 3/46/26
f 39/8/27 15/7/27 14/11/27
f 3/19/28 8/18/28 4/47/28
f 18/39/29 9/48/29 12/49/29
f 8/18/30 13/15/30 11/17/30
f 12/50/31 9/51/31 13/52/31
f 18/39/32 12/49/32 3/53/32
f 14/11/33 4/47/33 8/18/33
f 17/22/34 14/54/34 15/23/34
f 43/55/35 41/24/35 15/23/35
f 42/56/36 9/57/36 16/58/36
f 38/32/37 10/36/37 17/22/37
f 16/58/38 9/57/38 18/59/38
f 18/39/39 3/53/39 4/44/39
f 1/21/40 2/10/40 11/17/40
f 42/33/41 44/60/41 5/34/41
f 5/61/42 44/62/42 1/63/42
f 44/62/43 45/64/43 1/63/43
f 22/65/44 24/66/44 25/67/44
f 24/68/45 21/69/45 25/70/45
f 33/71/46 43/9/46 39/8/46
f 20/72/47 32/73/47 39/8/47
f 32/74/48 22/75/48 28/76/48
f 31/77/49 29/78/49 27/79/49
f 29/78/50 26/80/50 32/73/50
f 21/81/51 26/80/51 30/82/51
f 26/80/52 31/77/52 30/82/52
f 19/83/53 27/79/53 29/78/53
f 32/73/54 20/72/54 29/78/54
f 35/84/55 41/24/55 33/85/55
f 19/83/56 23/86/56 27/79/56
f 28/87/57 35/88/57 32/89/57
f 42/29/58 40/31/58 34/90/58
f 38/32/59 41/24/59 35/84/59
f 42/33/60 27/91/60 23/92/60
f 28/93/61 34/94/61 38/32/61
f 34/95/62 28/96/62 36/97/62
f 22/98/63 25/70/63 21/69/63
f 19/83/64 20/72/64 45/42/64
f 45/42/65 20/72/65 37/43/65
f 20/72/66 39/8/66 37/43/66
f 22/99/67 36/97/67 28/96/67
f 34/94/68 40/45/68 38/32/68
f 22/65/69 21/100/69 24/66/69
f 39/8/70 32/73/70 33/71/70
f 21/81/71 22/101/71 26/80/71
f 36/97/72 30/102/72 27/103/72
f 26/80/73 29/78/73 31/77/73
f 30/104/74 31/105/74 27/106/74
f 36/97/75 21/107/75 30/102/75
f 32/73/76 26/80/76 22/101/76
f 35/84/77 33/85/77 32/108/77
f 43/55/78 33/85/78 41/24/78
f 42/56/79 34/109/79 27/110/79
f 38/32/80 35/84/80 28/93/80
f 34/109/81 36/111/81 27/110/81
f 36/97/82 22/99/82 21/107/82
f 19/83/83 29/78/83 20/72/83
f 42/33/84 23/92/84 44/60/84
f 23/112/85 19/113/85 44/62/85
f 44/62/86 19/113/86 45/64/86
